<mxfile host="app.diagrams.net" modified="2021-04-08T11:51:02.059Z" agent="5.0 (Windows NT 10.0; Win64; x64) AppleWebKit/537.36 (KHTML, like Gecko) Chrome/89.0.4389.90 Safari/537.36" etag="S41WJ5ydTq3W6gLZy7Jh" version="14.5.0" type="github">
  <diagram id="4oTomSfcI0uRdjPs2MUx" name="MDM">
    <mxGraphModel dx="1422" dy="1874" grid="1" gridSize="10" guides="1" tooltips="1" connect="1" arrows="1" fold="1" page="1" pageScale="1" pageWidth="827" pageHeight="1169" math="0" shadow="0">
      <root>
        <mxCell id="0" />
        <mxCell id="1" parent="0" />
        <mxCell id="h7qUbW-6O3aC1qf4rNRa-1" value="&lt;p style=&quot;margin: 0px ; margin-top: 4px ; text-align: center ; text-decoration: underline&quot;&gt;&lt;strong&gt;Артикул партнера&lt;/strong&gt;&lt;/p&gt;&lt;hr&gt;&lt;p style=&quot;margin: 0px ; margin-left: 8px&quot;&gt;IdАртикулПартнера&lt;/p&gt;&lt;p style=&quot;margin: 0px ; margin-left: 8px&quot;&gt;Артикул&lt;/p&gt;&lt;p style=&quot;margin: 0px ; margin-left: 8px&quot;&gt;Наименование_Партнер&lt;/p&gt;&lt;p style=&quot;margin: 0px ; margin-left: 8px&quot;&gt;idПроизводитель&lt;/p&gt;&lt;p style=&quot;margin: 0px ; margin-left: 8px&quot;&gt;idПродуктГруппаПартнера&lt;/p&gt;&lt;p style=&quot;margin: 0px ; margin-left: 8px&quot;&gt;idОборудованиеПартнера&lt;/p&gt;&lt;p style=&quot;margin: 0px ; margin-left: 8px&quot;&gt;&lt;br&gt;&lt;/p&gt;" style="verticalAlign=top;align=left;overflow=fill;fontSize=12;fontFamily=Helvetica;html=1;strokeColor=#003366;shadow=1;fillColor=#D4E1F5;fontColor=#003366" vertex="1" parent="1">
          <mxGeometry x="380" y="-936.3399999999999" width="160" height="130" as="geometry" />
        </mxCell>
        <mxCell id="h7qUbW-6O3aC1qf4rNRa-2" value="&lt;p style=&quot;margin: 0px ; margin-top: 4px ; text-align: center ; text-decoration: underline&quot;&gt;&lt;strong&gt;Код SN&lt;/strong&gt;&lt;/p&gt;&lt;hr&gt;&lt;p style=&quot;margin: 0px ; margin-left: 8px&quot;&gt;IdКодSN&lt;/p&gt;&lt;p style=&quot;margin: 0px ; margin-left: 8px&quot;&gt;НаименованиеДляКлиента&lt;/p&gt;&lt;p style=&quot;margin: 0px ; margin-left: 8px&quot;&gt;IdКодКлиента&lt;/p&gt;&lt;p style=&quot;margin: 0px ; margin-left: 8px&quot;&gt;idПродуктГруппаSN&lt;/p&gt;&lt;p style=&quot;margin: 0px ; margin-left: 8px&quot;&gt;idНаправлениеPG&lt;/p&gt;&lt;p style=&quot;margin: 0px ; margin-left: 8px&quot;&gt;idДепартамент&lt;/p&gt;" style="verticalAlign=top;align=left;overflow=fill;fontSize=12;fontFamily=Helvetica;html=1;strokeColor=#003366;shadow=1;fillColor=#D4E1F5;fontColor=#003366" vertex="1" parent="1">
          <mxGeometry x="860" y="-939.9999999999999" width="160" height="155" as="geometry" />
        </mxCell>
        <mxCell id="h7qUbW-6O3aC1qf4rNRa-3" value="&lt;p style=&quot;margin: 0px ; margin-top: 4px ; text-align: center ; text-decoration: underline&quot;&gt;&lt;b&gt;Номенклатурный номер&lt;/b&gt;&lt;/p&gt;&lt;hr&gt;&lt;p style=&quot;margin: 0px ; margin-left: 8px&quot;&gt;IdНоменклатурный_номер&lt;/p&gt;&lt;p style=&quot;margin: 0px ; margin-left: 8px&quot;&gt;Базовое_наименование&lt;/p&gt;&lt;p style=&quot;margin: 0px ; margin-left: 8px&quot;&gt;&lt;span&gt;IdКодSN&lt;/span&gt;&lt;br&gt;&lt;/p&gt;&lt;p style=&quot;margin: 0px ; margin-left: 8px&quot;&gt;IdНоменклатурный_номер_ТГ&lt;/p&gt;&lt;p style=&quot;margin: 0px ; margin-left: 8px&quot;&gt;IdАртикулПартнера&lt;/p&gt;&lt;p style=&quot;margin: 0px ; margin-left: 8px&quot;&gt;IdАртикулOEM&lt;/p&gt;&lt;p style=&quot;margin: 0px ; margin-left: 8px&quot;&gt;IdТоварнаяГруппа&lt;/p&gt;&lt;p style=&quot;margin: 0px ; margin-left: 8px&quot;&gt;&lt;br&gt;&lt;/p&gt;" style="verticalAlign=top;align=left;overflow=fill;fontSize=12;fontFamily=Helvetica;html=1;strokeColor=#003366;shadow=1;fillColor=#D4E1F5;fontColor=#003366" vertex="1" parent="1">
          <mxGeometry x="611.08" y="-926.3399999999999" width="188.92" height="250" as="geometry" />
        </mxCell>
        <mxCell id="h7qUbW-6O3aC1qf4rNRa-4" value="&lt;p style=&quot;margin: 0px ; margin-top: 4px ; text-align: center ; text-decoration: underline&quot;&gt;&lt;b&gt;Производитель&lt;/b&gt;&lt;/p&gt;&lt;hr&gt;&lt;p style=&quot;margin: 0px ; margin-left: 8px&quot;&gt;IdПроизводитель&lt;/p&gt;&lt;p style=&quot;margin: 0px ; margin-left: 8px&quot;&gt;Наименование_Англ&lt;/p&gt;&lt;p style=&quot;margin: 0px ; margin-left: 8px&quot;&gt;Наименование_Рус&lt;/p&gt;" style="verticalAlign=top;align=left;overflow=fill;fontSize=12;fontFamily=Helvetica;html=1;strokeColor=#d79b00;shadow=1;fillColor=#ffe6cc;" vertex="1" parent="1">
          <mxGeometry x="40" y="-894.9999999999998" width="160" height="78.66" as="geometry" />
        </mxCell>
        <mxCell id="h7qUbW-6O3aC1qf4rNRa-5" value="" style="endArrow=open;endSize=12;startArrow=diamondThin;startSize=14;startFill=0;edgeStyle=orthogonalEdgeStyle;rounded=0;entryX=1;entryY=0.5;entryDx=0;entryDy=0;" edge="1" parent="1" target="h7qUbW-6O3aC1qf4rNRa-4">
          <mxGeometry x="789.3599999999999" y="-986.3399999999999" as="geometry">
            <mxPoint x="380" y="-855.3399999999999" as="sourcePoint" />
            <mxPoint x="490" y="-546.8299999999997" as="targetPoint" />
          </mxGeometry>
        </mxCell>
        <mxCell id="h7qUbW-6O3aC1qf4rNRa-6" value="0..n" style="resizable=0;align=left;verticalAlign=top;labelBackgroundColor=#ffffff;fontSize=10;strokeColor=#003366;shadow=1;fillColor=#D4E1F5;fontColor=#003366" connectable="0" vertex="1" parent="h7qUbW-6O3aC1qf4rNRa-5">
          <mxGeometry x="-1" relative="1" as="geometry">
            <mxPoint x="-40.0000000000002" y="2.999999999999177" as="offset" />
          </mxGeometry>
        </mxCell>
        <mxCell id="h7qUbW-6O3aC1qf4rNRa-7" value="1" style="resizable=0;align=right;verticalAlign=top;labelBackgroundColor=#ffffff;fontSize=10;strokeColor=#003366;shadow=1;fillColor=#D4E1F5;fontColor=#003366" connectable="0" vertex="1" parent="h7qUbW-6O3aC1qf4rNRa-5">
          <mxGeometry x="1" relative="1" as="geometry">
            <mxPoint x="30" y="3.33" as="offset" />
          </mxGeometry>
        </mxCell>
        <mxCell id="h7qUbW-6O3aC1qf4rNRa-8" value="" style="endArrow=open;endSize=12;startArrow=diamondThin;startSize=14;startFill=0;edgeStyle=orthogonalEdgeStyle;exitX=0.25;exitY=1;exitDx=0;exitDy=0;entryX=1;entryY=0.75;entryDx=0;entryDy=0;" edge="1" parent="1" source="h7qUbW-6O3aC1qf4rNRa-41" target="h7qUbW-6O3aC1qf4rNRa-20">
          <mxGeometry x="1289.36" y="-1256.34" as="geometry">
            <mxPoint x="1429.04" y="-717.3399999999999" as="sourcePoint" />
            <mxPoint x="1449.36" y="-1256.34" as="targetPoint" />
            <Array as="points">
              <mxPoint x="1390" y="-865.3399999999999" />
            </Array>
          </mxGeometry>
        </mxCell>
        <mxCell id="h7qUbW-6O3aC1qf4rNRa-9" value="0..n" style="resizable=0;align=left;verticalAlign=top;labelBackgroundColor=#ffffff;fontSize=10;strokeColor=#003366;shadow=1;fillColor=#D4E1F5;fontColor=#003366" connectable="0" vertex="1" parent="h7qUbW-6O3aC1qf4rNRa-8">
          <mxGeometry x="-1" relative="1" as="geometry">
            <mxPoint x="-39.04" as="offset" />
          </mxGeometry>
        </mxCell>
        <mxCell id="h7qUbW-6O3aC1qf4rNRa-10" value="1" style="resizable=0;align=right;verticalAlign=top;labelBackgroundColor=#ffffff;fontSize=10;strokeColor=#003366;shadow=1;fillColor=#D4E1F5;fontColor=#003366" connectable="0" vertex="1" parent="h7qUbW-6O3aC1qf4rNRa-8">
          <mxGeometry x="1" relative="1" as="geometry">
            <mxPoint x="20" y="-20" as="offset" />
          </mxGeometry>
        </mxCell>
        <mxCell id="h7qUbW-6O3aC1qf4rNRa-11" value="" style="endArrow=open;endSize=12;startArrow=diamondThin;startSize=14;startFill=0;edgeStyle=orthogonalEdgeStyle;exitX=0.5;exitY=1;exitDx=0;exitDy=0;entryX=0.5;entryY=0;entryDx=0;entryDy=0;" edge="1" parent="1" source="h7qUbW-6O3aC1qf4rNRa-2" target="h7qUbW-6O3aC1qf4rNRa-43">
          <mxGeometry x="1379.36" y="-876.3399999999999" as="geometry">
            <mxPoint x="1379.36" y="-876.3399999999999" as="sourcePoint" />
            <mxPoint x="1430.5294117647059" y="-653.516470588235" as="targetPoint" />
            <Array as="points">
              <mxPoint x="940" y="-650" />
            </Array>
          </mxGeometry>
        </mxCell>
        <mxCell id="h7qUbW-6O3aC1qf4rNRa-12" value="0..n" style="resizable=0;align=left;verticalAlign=top;labelBackgroundColor=#ffffff;fontSize=10;strokeColor=#003366;shadow=1;fillColor=#D4E1F5;fontColor=#003366" connectable="0" vertex="1" parent="h7qUbW-6O3aC1qf4rNRa-11">
          <mxGeometry x="-1" relative="1" as="geometry">
            <mxPoint x="10.00000000000009" y="-22.499999999999915" as="offset" />
          </mxGeometry>
        </mxCell>
        <mxCell id="h7qUbW-6O3aC1qf4rNRa-13" value="1" style="resizable=0;align=right;verticalAlign=top;labelBackgroundColor=#ffffff;fontSize=10;strokeColor=#003366;shadow=1;fillColor=#D4E1F5;fontColor=#003366" connectable="0" vertex="1" parent="h7qUbW-6O3aC1qf4rNRa-11">
          <mxGeometry x="1" relative="1" as="geometry">
            <mxPoint x="-20" as="offset" />
          </mxGeometry>
        </mxCell>
        <mxCell id="h7qUbW-6O3aC1qf4rNRa-14" value="" style="endArrow=open;endSize=12;startArrow=diamondThin;startSize=14;startFill=0;edgeStyle=orthogonalEdgeStyle;entryX=1;entryY=0.6;entryDx=0;entryDy=0;exitX=0.388;exitY=1.006;exitDx=0;exitDy=0;exitPerimeter=0;entryPerimeter=0;" edge="1" parent="1" source="h7qUbW-6O3aC1qf4rNRa-3" target="h7qUbW-6O3aC1qf4rNRa-55">
          <mxGeometry x="1409.36" y="-1306.34" as="geometry">
            <mxPoint x="680" y="-696.3399999999999" as="sourcePoint" />
            <mxPoint x="650" y="-546.3399999999999" as="targetPoint" />
            <Array as="points">
              <mxPoint x="684" y="-546.3399999999999" />
              <mxPoint x="673" y="-546.3399999999999" />
              <mxPoint x="673" y="-544.3399999999999" />
            </Array>
          </mxGeometry>
        </mxCell>
        <mxCell id="h7qUbW-6O3aC1qf4rNRa-15" value="0..n" style="resizable=0;align=left;verticalAlign=top;labelBackgroundColor=#ffffff;fontSize=10;strokeColor=#003366;shadow=1;fillColor=#D4E1F5;fontColor=#003366" connectable="0" vertex="1" parent="h7qUbW-6O3aC1qf4rNRa-14">
          <mxGeometry x="-1" relative="1" as="geometry">
            <mxPoint x="-30" as="offset" />
          </mxGeometry>
        </mxCell>
        <mxCell id="h7qUbW-6O3aC1qf4rNRa-16" value="1" style="resizable=0;align=right;verticalAlign=top;labelBackgroundColor=#ffffff;fontSize=10;strokeColor=#003366;shadow=1;fillColor=#D4E1F5;fontColor=#003366" connectable="0" vertex="1" parent="h7qUbW-6O3aC1qf4rNRa-14">
          <mxGeometry x="1" relative="1" as="geometry">
            <mxPoint x="20" y="2.7284841053187846e-13" as="offset" />
          </mxGeometry>
        </mxCell>
        <mxCell id="h7qUbW-6O3aC1qf4rNRa-17" value="" style="endArrow=open;endSize=12;startArrow=diamondThin;startSize=14;startFill=0;edgeStyle=orthogonalEdgeStyle;exitX=0;exitY=0.5;exitDx=0;exitDy=0;" edge="1" parent="1" source="h7qUbW-6O3aC1qf4rNRa-2" target="h7qUbW-6O3aC1qf4rNRa-3">
          <mxGeometry x="640" y="-1096.34" as="geometry">
            <mxPoint x="770" y="-863.3399999999999" as="sourcePoint" />
            <mxPoint x="800" y="-1096.34" as="targetPoint" />
          </mxGeometry>
        </mxCell>
        <mxCell id="h7qUbW-6O3aC1qf4rNRa-18" value="0..n" style="resizable=0;align=left;verticalAlign=top;labelBackgroundColor=#ffffff;fontSize=10;strokeColor=#003366;shadow=1;fillColor=#D4E1F5;fontColor=#003366" connectable="0" vertex="1" parent="h7qUbW-6O3aC1qf4rNRa-17">
          <mxGeometry x="-1" relative="1" as="geometry">
            <mxPoint x="-20" y="2.04" as="offset" />
          </mxGeometry>
        </mxCell>
        <mxCell id="h7qUbW-6O3aC1qf4rNRa-19" value="1" style="resizable=0;align=right;verticalAlign=top;labelBackgroundColor=#ffffff;fontSize=10;strokeColor=#003366;shadow=1;fillColor=#D4E1F5;fontColor=#003366" connectable="0" vertex="1" parent="h7qUbW-6O3aC1qf4rNRa-17">
          <mxGeometry x="1" relative="1" as="geometry">
            <mxPoint x="19.17" y="-24.99999999999981" as="offset" />
          </mxGeometry>
        </mxCell>
        <mxCell id="h7qUbW-6O3aC1qf4rNRa-20" value="&lt;p style=&quot;margin: 0px ; margin-top: 4px ; text-align: center ; text-decoration: underline&quot;&gt;&lt;b&gt;Продуктовая группа СМ&lt;/b&gt;&lt;/p&gt;&lt;p style=&quot;margin: 0px ; margin-left: 8px&quot;&gt;IdПродуктГруппаСМ&lt;br&gt;&lt;/p&gt;&lt;p style=&quot;margin: 0px ; margin-left: 8px&quot;&gt;НаименованиеПродуктГруппаСМ&lt;/p&gt;&lt;p style=&quot;margin: 0px ; margin-left: 8px&quot;&gt;IdПродуктГруппаСМАгрегир&lt;/p&gt;" style="verticalAlign=top;align=left;overflow=fill;fontSize=12;fontFamily=Helvetica;html=1;strokeColor=#d79b00;shadow=1;fillColor=#ffe6cc;" vertex="1" parent="1">
          <mxGeometry x="1130" y="-928.8399999999999" width="220" height="85" as="geometry" />
        </mxCell>
        <mxCell id="h7qUbW-6O3aC1qf4rNRa-21" value="" style="endArrow=open;endSize=12;startArrow=diamondThin;startSize=14;startFill=0;edgeStyle=orthogonalEdgeStyle;exitX=1;exitY=0.75;exitDx=0;exitDy=0;entryX=0;entryY=0.5;entryDx=0;entryDy=0;" edge="1" parent="1" source="h7qUbW-6O3aC1qf4rNRa-2" target="h7qUbW-6O3aC1qf4rNRa-20">
          <mxGeometry x="657.3599999999999" y="-568.3" as="geometry">
            <mxPoint x="242" y="-458.3399999999999" as="sourcePoint" />
            <mxPoint x="290" y="-407.3399999999999" as="targetPoint" />
            <Array as="points">
              <mxPoint x="1050" y="-835.3399999999999" />
              <mxPoint x="1050" y="-846.3399999999999" />
              <mxPoint x="1100" y="-846.3399999999999" />
              <mxPoint x="1100" y="-886.3399999999999" />
            </Array>
          </mxGeometry>
        </mxCell>
        <mxCell id="h7qUbW-6O3aC1qf4rNRa-22" value="0..n" style="resizable=0;align=left;verticalAlign=top;labelBackgroundColor=#ffffff;fontSize=10;strokeColor=#003366;shadow=1;fillColor=#D4E1F5;fontColor=#003366" connectable="0" vertex="1" parent="h7qUbW-6O3aC1qf4rNRa-21">
          <mxGeometry x="-1" relative="1" as="geometry">
            <mxPoint x="10" y="-29.000000000000266" as="offset" />
          </mxGeometry>
        </mxCell>
        <mxCell id="h7qUbW-6O3aC1qf4rNRa-23" value="1" style="resizable=0;align=right;verticalAlign=top;labelBackgroundColor=#ffffff;fontSize=10;strokeColor=#003366;shadow=1;fillColor=#D4E1F5;fontColor=#003366" connectable="0" vertex="1" parent="h7qUbW-6O3aC1qf4rNRa-21">
          <mxGeometry x="1" relative="1" as="geometry">
            <mxPoint x="-10.000000000000412" y="-20.16" as="offset" />
          </mxGeometry>
        </mxCell>
        <mxCell id="h7qUbW-6O3aC1qf4rNRa-24" value="" style="endArrow=open;endSize=12;startArrow=diamondThin;startSize=14;startFill=0;edgeStyle=orthogonalEdgeStyle;exitX=1;exitY=0.25;exitDx=0;exitDy=0;entryX=0.006;entryY=0.424;entryDx=0;entryDy=0;entryPerimeter=0;" edge="1" parent="1" source="h7qUbW-6O3aC1qf4rNRa-1" target="h7qUbW-6O3aC1qf4rNRa-3">
          <mxGeometry x="632.3599999999999" y="-994.3399999999999" as="geometry">
            <mxPoint x="510" y="-829.3399999999999" as="sourcePoint" />
            <mxPoint x="603.0000000000002" y="-816.3399999999999" as="targetPoint" />
          </mxGeometry>
        </mxCell>
        <mxCell id="h7qUbW-6O3aC1qf4rNRa-25" value="0..n" style="resizable=0;align=left;verticalAlign=top;labelBackgroundColor=#ffffff;fontSize=10;strokeColor=#003366;shadow=1;fillColor=#D4E1F5;fontColor=#003366" connectable="0" vertex="1" parent="h7qUbW-6O3aC1qf4rNRa-24">
          <mxGeometry x="-1" relative="1" as="geometry">
            <mxPoint x="10" y="5" as="offset" />
          </mxGeometry>
        </mxCell>
        <mxCell id="h7qUbW-6O3aC1qf4rNRa-26" value="1" style="resizable=0;align=right;verticalAlign=top;labelBackgroundColor=#ffffff;fontSize=10;strokeColor=#003366;shadow=1;fillColor=#D4E1F5;fontColor=#003366" connectable="0" vertex="1" parent="h7qUbW-6O3aC1qf4rNRa-24">
          <mxGeometry x="1" relative="1" as="geometry">
            <mxPoint x="-10.000000000000188" y="-27.999999999999815" as="offset" />
          </mxGeometry>
        </mxCell>
        <mxCell id="h7qUbW-6O3aC1qf4rNRa-27" value="" style="endArrow=open;endSize=12;startArrow=diamondThin;startSize=14;startFill=0;edgeStyle=orthogonalEdgeStyle;exitX=0.994;exitY=0.89;exitDx=0;exitDy=0;entryX=0;entryY=0.5;entryDx=0;entryDy=0;exitPerimeter=0;" edge="1" parent="1" source="h7qUbW-6O3aC1qf4rNRa-2" target="h7qUbW-6O3aC1qf4rNRa-42">
          <mxGeometry x="1389.36" y="-866.3399999999999" as="geometry">
            <mxPoint x="1270" y="-531.9199999999998" as="sourcePoint" />
            <mxPoint x="1426.96" y="-678.3399999999999" as="targetPoint" />
          </mxGeometry>
        </mxCell>
        <mxCell id="h7qUbW-6O3aC1qf4rNRa-28" value="0..n" style="resizable=0;align=left;verticalAlign=top;labelBackgroundColor=#ffffff;fontSize=10;strokeColor=#003366;shadow=1;fillColor=#D4E1F5;fontColor=#003366" connectable="0" vertex="1" parent="h7qUbW-6O3aC1qf4rNRa-27">
          <mxGeometry x="-1" relative="1" as="geometry">
            <mxPoint x="10.00000000000009" y="-22.499999999999915" as="offset" />
          </mxGeometry>
        </mxCell>
        <mxCell id="h7qUbW-6O3aC1qf4rNRa-29" value="1" style="resizable=0;align=right;verticalAlign=top;labelBackgroundColor=#ffffff;fontSize=10;strokeColor=#003366;shadow=1;fillColor=#D4E1F5;fontColor=#003366" connectable="0" vertex="1" parent="h7qUbW-6O3aC1qf4rNRa-27">
          <mxGeometry x="1" relative="1" as="geometry">
            <mxPoint x="-17" y="2" as="offset" />
          </mxGeometry>
        </mxCell>
        <mxCell id="h7qUbW-6O3aC1qf4rNRa-30" value="&lt;p style=&quot;margin: 0px ; margin-top: 4px ; text-align: center ; text-decoration: underline&quot;&gt;&lt;strong&gt;Код Клиента&lt;/strong&gt;&lt;/p&gt;&lt;hr&gt;&lt;p style=&quot;margin: 0px ; margin-left: 8px&quot;&gt;IdКодКлиента&lt;/p&gt;&lt;p style=&quot;margin: 0px ; margin-left: 8px&quot;&gt;НаименованиеУКлиента&lt;/p&gt;&lt;p style=&quot;margin: 0px ; margin-left: 8px&quot;&gt;&lt;br&gt;&lt;/p&gt;" style="verticalAlign=top;align=left;overflow=fill;fontSize=12;fontFamily=Helvetica;html=1;strokeColor=#003366;shadow=1;fillColor=#D4E1F5;fontColor=#003366" vertex="1" parent="1">
          <mxGeometry x="1090" y="-1076.34" width="160" height="77.5" as="geometry" />
        </mxCell>
        <mxCell id="h7qUbW-6O3aC1qf4rNRa-31" value="&lt;p style=&quot;margin: 0px ; margin-top: 4px ; text-align: center ; text-decoration: underline&quot;&gt;&lt;b&gt;Артикул OEM&lt;/b&gt;&lt;/p&gt;&lt;hr&gt;&lt;p style=&quot;margin: 0px ; margin-left: 8px&quot;&gt;IdАртикулOEM&lt;/p&gt;&lt;p style=&quot;margin: 0px ; margin-left: 8px&quot;&gt;Артикул_OEM&lt;/p&gt;&lt;p style=&quot;margin: 0px ; margin-left: 8px&quot;&gt;Наименование_OEM&lt;/p&gt;&lt;p style=&quot;margin: 0px ; margin-left: 8px&quot;&gt;idПроизводитель&lt;/p&gt;" style="verticalAlign=top;align=left;overflow=fill;fontSize=12;fontFamily=Helvetica;html=1;strokeColor=#003366;shadow=1;fillColor=#D4E1F5;fontColor=#003366" vertex="1" parent="1">
          <mxGeometry x="380" y="-756.3399999999999" width="160" height="100" as="geometry" />
        </mxCell>
        <mxCell id="h7qUbW-6O3aC1qf4rNRa-32" value="" style="endArrow=open;endSize=12;startArrow=diamondThin;startSize=14;startFill=0;edgeStyle=orthogonalEdgeStyle;exitX=0;exitY=0.5;exitDx=0;exitDy=0;entryX=1;entryY=0.5;entryDx=0;entryDy=0;" edge="1" parent="1" source="h7qUbW-6O3aC1qf4rNRa-30" target="h7qUbW-6O3aC1qf4rNRa-2">
          <mxGeometry x="930" y="-1086.34" as="geometry">
            <mxPoint x="1060" y="-853.3399999999999" as="sourcePoint" />
            <mxPoint x="1260" y="-836.3399999999999" as="targetPoint" />
            <Array as="points">
              <mxPoint x="1051" y="-1037.34" />
              <mxPoint x="1051" y="-984.3399999999999" />
              <mxPoint x="1060" y="-984.3399999999999" />
              <mxPoint x="1060" y="-873.3399999999999" />
            </Array>
          </mxGeometry>
        </mxCell>
        <mxCell id="h7qUbW-6O3aC1qf4rNRa-33" value="0..n" style="resizable=0;align=left;verticalAlign=top;labelBackgroundColor=#ffffff;fontSize=10;strokeColor=#003366;shadow=1;fillColor=#D4E1F5;fontColor=#003366" connectable="0" vertex="1" parent="h7qUbW-6O3aC1qf4rNRa-32">
          <mxGeometry x="-1" relative="1" as="geometry">
            <mxPoint x="-20" y="2.04" as="offset" />
          </mxGeometry>
        </mxCell>
        <mxCell id="h7qUbW-6O3aC1qf4rNRa-34" value="1" style="resizable=0;align=right;verticalAlign=top;labelBackgroundColor=#ffffff;fontSize=10;strokeColor=#003366;shadow=1;fillColor=#D4E1F5;fontColor=#003366" connectable="0" vertex="1" parent="h7qUbW-6O3aC1qf4rNRa-32">
          <mxGeometry x="1" relative="1" as="geometry">
            <mxPoint x="20" y="-24.99999999999981" as="offset" />
          </mxGeometry>
        </mxCell>
        <mxCell id="h7qUbW-6O3aC1qf4rNRa-35" value="" style="endArrow=open;endSize=12;startArrow=diamondThin;startSize=14;startFill=0;edgeStyle=orthogonalEdgeStyle;entryX=-0.019;entryY=0.944;entryDx=0;entryDy=0;entryPerimeter=0;" edge="1" parent="1" source="h7qUbW-6O3aC1qf4rNRa-31" target="h7qUbW-6O3aC1qf4rNRa-3">
          <mxGeometry x="642.3599999999999" y="-984.3399999999999" as="geometry">
            <mxPoint x="550" y="-894.3299999999999" as="sourcePoint" />
            <mxPoint x="622.04" y="-810.3399999999999" as="targetPoint" />
          </mxGeometry>
        </mxCell>
        <mxCell id="h7qUbW-6O3aC1qf4rNRa-36" value="0..n" style="resizable=0;align=left;verticalAlign=top;labelBackgroundColor=#ffffff;fontSize=10;strokeColor=#003366;shadow=1;fillColor=#D4E1F5;fontColor=#003366" connectable="0" vertex="1" parent="h7qUbW-6O3aC1qf4rNRa-35">
          <mxGeometry x="-1" relative="1" as="geometry">
            <mxPoint x="10" y="5" as="offset" />
          </mxGeometry>
        </mxCell>
        <mxCell id="h7qUbW-6O3aC1qf4rNRa-37" value="1" style="resizable=0;align=right;verticalAlign=top;labelBackgroundColor=#ffffff;fontSize=10;strokeColor=#003366;shadow=1;fillColor=#D4E1F5;fontColor=#003366" connectable="0" vertex="1" parent="h7qUbW-6O3aC1qf4rNRa-35">
          <mxGeometry x="1" relative="1" as="geometry">
            <mxPoint x="-10.000000000000188" y="-27.999999999999815" as="offset" />
          </mxGeometry>
        </mxCell>
        <mxCell id="h7qUbW-6O3aC1qf4rNRa-38" value="1" style="resizable=0;align=right;verticalAlign=top;labelBackgroundColor=#ffffff;fontSize=10;strokeColor=#003366;shadow=1;fillColor=#D4E1F5;fontColor=#003366" connectable="0" vertex="1" parent="1">
          <mxGeometry x="1" relative="1" as="geometry">
            <mxPoint x="323.3299999999998" y="-27.49999999999981" as="offset" />
          </mxGeometry>
        </mxCell>
        <mxCell id="h7qUbW-6O3aC1qf4rNRa-39" value="1" style="resizable=0;align=right;verticalAlign=top;labelBackgroundColor=#ffffff;fontSize=10;strokeColor=#003366;shadow=1;fillColor=#D4E1F5;fontColor=#003366" connectable="0" vertex="1" parent="1">
          <mxGeometry x="1" relative="1" as="geometry">
            <mxPoint x="293.3299999999998" y="-17.49999999999981" as="offset" />
          </mxGeometry>
        </mxCell>
        <mxCell id="h7qUbW-6O3aC1qf4rNRa-40" value="1" style="resizable=0;align=right;verticalAlign=top;labelBackgroundColor=#ffffff;fontSize=10;strokeColor=#003366;shadow=1;fillColor=#D4E1F5;fontColor=#003366" connectable="0" vertex="1" parent="1">
          <mxGeometry x="699.9966666666668" y="-951.339034229972" as="geometry">
            <mxPoint x="19.99999999999981" y="1.8947806286936006e-13" as="offset" />
          </mxGeometry>
        </mxCell>
        <mxCell id="h7qUbW-6O3aC1qf4rNRa-41" value="&lt;p style=&quot;margin: 0px ; margin-top: 4px ; text-align: center ; text-decoration: underline&quot;&gt;&lt;b&gt;Агрегированная продуктовая группа СМ&lt;/b&gt;&lt;/p&gt;&lt;hr&gt;&lt;p style=&quot;margin: 0px ; margin-left: 8px&quot;&gt;IdПродуктГруппаСМАгрегир&lt;br&gt;&lt;/p&gt;&lt;p style=&quot;margin: 0px ; margin-left: 8px&quot;&gt;НаименованиеПродуктГруппаСМАгрегир&lt;/p&gt;" style="verticalAlign=top;align=left;overflow=fill;fontSize=12;fontFamily=Helvetica;html=1;strokeColor=#d79b00;shadow=1;fillColor=#ffe6cc;" vertex="1" parent="1">
          <mxGeometry x="1320" y="-1083.84" width="280" height="85" as="geometry" />
        </mxCell>
        <mxCell id="h7qUbW-6O3aC1qf4rNRa-42" value="&lt;p style=&quot;margin: 0px ; margin-top: 4px ; text-align: center ; text-decoration: underline&quot;&gt;&lt;b&gt;Департмент&lt;/b&gt;&lt;/p&gt;&lt;hr&gt;&lt;p style=&quot;margin: 0px ; margin-left: 8px&quot;&gt;IdДепартамент&lt;br&gt;&lt;/p&gt;&lt;p style=&quot;margin: 0px ; margin-left: 8px&quot;&gt;НаименованиеДепартамент&lt;/p&gt;&lt;p style=&quot;margin: 0px ; margin-left: 8px&quot;&gt;&lt;br&gt;&lt;/p&gt;" style="verticalAlign=top;align=left;overflow=fill;fontSize=12;fontFamily=Helvetica;html=1;strokeColor=#d79b00;shadow=1;fillColor=#ffe6cc;" vertex="1" parent="1">
          <mxGeometry x="1140" y="-816.3399999999999" width="220" height="70" as="geometry" />
        </mxCell>
        <mxCell id="h7qUbW-6O3aC1qf4rNRa-43" value="&lt;p style=&quot;margin: 0px ; margin-top: 4px ; text-align: center ; text-decoration: underline&quot;&gt;&lt;b&gt;Направление PG&lt;/b&gt;&lt;/p&gt;&lt;hr&gt;&lt;p style=&quot;margin: 0px ; margin-left: 8px&quot;&gt;IdНаправлениеPG&lt;br&gt;&lt;/p&gt;&lt;p style=&quot;margin: 0px ; margin-left: 8px&quot;&gt;НаименованиеНаправлениеPG&lt;/p&gt;" style="verticalAlign=top;align=left;overflow=fill;fontSize=12;fontFamily=Helvetica;html=1;strokeColor=#d79b00;shadow=1;fillColor=#ffe6cc;" vertex="1" parent="1">
          <mxGeometry x="830" y="-609.9999999999999" width="220" height="85" as="geometry" />
        </mxCell>
        <mxCell id="h7qUbW-6O3aC1qf4rNRa-44" value="" style="endArrow=open;endSize=12;startArrow=diamondThin;startSize=14;startFill=0;edgeStyle=orthogonalEdgeStyle;rounded=0;entryX=0.75;entryY=1;entryDx=0;entryDy=0;exitX=0;exitY=0.75;exitDx=0;exitDy=0;" edge="1" parent="1" source="h7qUbW-6O3aC1qf4rNRa-31" target="h7qUbW-6O3aC1qf4rNRa-4">
          <mxGeometry x="799.3599999999999" y="-976.3399999999999" as="geometry">
            <mxPoint x="390" y="-845.3399999999999" as="sourcePoint" />
            <mxPoint x="310" y="-845.6699999999998" as="targetPoint" />
          </mxGeometry>
        </mxCell>
        <mxCell id="h7qUbW-6O3aC1qf4rNRa-45" value="0..n" style="resizable=0;align=left;verticalAlign=top;labelBackgroundColor=#ffffff;fontSize=10;strokeColor=#003366;shadow=1;fillColor=#D4E1F5;fontColor=#003366" connectable="0" vertex="1" parent="h7qUbW-6O3aC1qf4rNRa-44">
          <mxGeometry x="-1" relative="1" as="geometry">
            <mxPoint x="-30.0000000000002" y="3.039999999999177" as="offset" />
          </mxGeometry>
        </mxCell>
        <mxCell id="h7qUbW-6O3aC1qf4rNRa-46" value="1" style="resizable=0;align=right;verticalAlign=top;labelBackgroundColor=#ffffff;fontSize=10;strokeColor=#003366;shadow=1;fillColor=#D4E1F5;fontColor=#003366" connectable="0" vertex="1" parent="h7qUbW-6O3aC1qf4rNRa-44">
          <mxGeometry x="1" relative="1" as="geometry">
            <mxPoint x="-10" as="offset" />
          </mxGeometry>
        </mxCell>
        <mxCell id="h7qUbW-6O3aC1qf4rNRa-47" value="&lt;p style=&quot;margin: 0px ; margin-top: 4px ; text-align: center ; text-decoration: underline&quot;&gt;&lt;b&gt;Оборудование партнера&lt;/b&gt;&lt;/p&gt;&lt;hr&gt;&lt;p style=&quot;margin: 0px ; margin-left: 8px&quot;&gt;IdОборудованиеПартнера&lt;/p&gt;&lt;p style=&quot;margin: 0px ; margin-left: 8px&quot;&gt;Наименование_Англ&lt;/p&gt;&lt;p style=&quot;margin: 0px ; margin-left: 8px&quot;&gt;Наименование_Рус&lt;/p&gt;" style="verticalAlign=top;align=left;overflow=fill;fontSize=12;fontFamily=Helvetica;html=1;strokeColor=#d79b00;shadow=1;fillColor=#ffe6cc;" vertex="1" parent="1">
          <mxGeometry x="100" y="-1139.9999999999998" width="160" height="78.66" as="geometry" />
        </mxCell>
        <mxCell id="h7qUbW-6O3aC1qf4rNRa-48" value="&lt;p style=&quot;margin: 0px ; margin-top: 4px ; text-align: center ; text-decoration: underline&quot;&gt;&lt;strong&gt;Оборудование-Артикул&lt;/strong&gt;&lt;/p&gt;&lt;hr&gt;&lt;p style=&quot;margin: 0px ; margin-left: 8px&quot;&gt;IdАртикулПартнера&lt;/p&gt;&lt;p style=&quot;margin: 0px ; margin-left: 8px&quot;&gt;IdОборудованиеПартнера&lt;/p&gt;&lt;p style=&quot;margin: 0px ; margin-left: 8px&quot;&gt;&lt;br&gt;&lt;/p&gt;" style="verticalAlign=top;align=left;overflow=fill;fontSize=12;fontFamily=Helvetica;html=1;strokeColor=#9673a6;shadow=1;fillColor=#e1d5e7;" vertex="1" parent="1">
          <mxGeometry x="180" y="-1016.3399999999999" width="160" height="80" as="geometry" />
        </mxCell>
        <mxCell id="h7qUbW-6O3aC1qf4rNRa-49" value="" style="endArrow=open;endSize=12;startArrow=diamondThin;startSize=14;startFill=0;edgeStyle=orthogonalEdgeStyle;rounded=0;entryX=0.5;entryY=1;entryDx=0;entryDy=0;exitX=0;exitY=0.25;exitDx=0;exitDy=0;" edge="1" parent="1" source="h7qUbW-6O3aC1qf4rNRa-1" target="h7qUbW-6O3aC1qf4rNRa-48">
          <mxGeometry x="799.3599999999999" y="-976.3399999999999" as="geometry">
            <mxPoint x="390" y="-845.3399999999999" as="sourcePoint" />
            <mxPoint x="210" y="-845.6699999999998" as="targetPoint" />
          </mxGeometry>
        </mxCell>
        <mxCell id="h7qUbW-6O3aC1qf4rNRa-50" value="0..n" style="resizable=0;align=left;verticalAlign=top;labelBackgroundColor=#ffffff;fontSize=10;strokeColor=#003366;shadow=1;fillColor=#D4E1F5;fontColor=#003366" connectable="0" vertex="1" parent="h7qUbW-6O3aC1qf4rNRa-49">
          <mxGeometry x="-1" relative="1" as="geometry">
            <mxPoint x="-40.0000000000002" y="2.999999999999177" as="offset" />
          </mxGeometry>
        </mxCell>
        <mxCell id="h7qUbW-6O3aC1qf4rNRa-51" value="1" style="resizable=0;align=right;verticalAlign=top;labelBackgroundColor=#ffffff;fontSize=10;strokeColor=#003366;shadow=1;fillColor=#D4E1F5;fontColor=#003366" connectable="0" vertex="1" parent="h7qUbW-6O3aC1qf4rNRa-49">
          <mxGeometry x="1" relative="1" as="geometry">
            <mxPoint x="30" y="3.33" as="offset" />
          </mxGeometry>
        </mxCell>
        <mxCell id="h7qUbW-6O3aC1qf4rNRa-52" value="" style="endArrow=open;endSize=12;startArrow=diamondThin;startSize=14;startFill=0;edgeStyle=orthogonalEdgeStyle;rounded=0;exitX=0.75;exitY=1;exitDx=0;exitDy=0;" edge="1" parent="1" source="h7qUbW-6O3aC1qf4rNRa-47" target="h7qUbW-6O3aC1qf4rNRa-48">
          <mxGeometry x="809.3599999999999" y="-966.3399999999999" as="geometry">
            <mxPoint x="390" y="-893.8399999999999" as="sourcePoint" />
            <mxPoint x="270" y="-926.3399999999999" as="targetPoint" />
          </mxGeometry>
        </mxCell>
        <mxCell id="h7qUbW-6O3aC1qf4rNRa-53" value="0..n" style="resizable=0;align=left;verticalAlign=top;labelBackgroundColor=#ffffff;fontSize=10;strokeColor=#003366;shadow=1;fillColor=#D4E1F5;fontColor=#003366" connectable="0" vertex="1" parent="h7qUbW-6O3aC1qf4rNRa-52">
          <mxGeometry x="-1" relative="1" as="geometry">
            <mxPoint x="-40.0000000000002" y="2.999999999999177" as="offset" />
          </mxGeometry>
        </mxCell>
        <mxCell id="h7qUbW-6O3aC1qf4rNRa-54" value="1" style="resizable=0;align=right;verticalAlign=top;labelBackgroundColor=#ffffff;fontSize=10;strokeColor=#003366;shadow=1;fillColor=#D4E1F5;fontColor=#003366" connectable="0" vertex="1" parent="h7qUbW-6O3aC1qf4rNRa-52">
          <mxGeometry x="1" relative="1" as="geometry">
            <mxPoint x="30" y="-30" as="offset" />
          </mxGeometry>
        </mxCell>
        <mxCell id="h7qUbW-6O3aC1qf4rNRa-55" value="&lt;p style=&quot;margin: 0px ; margin-top: 4px ; text-align: center ; text-decoration: underline&quot;&gt;&lt;b&gt;Товарная группа&lt;/b&gt;&lt;/p&gt;&lt;hr&gt;&lt;p style=&quot;margin: 0px ; margin-left: 8px&quot;&gt;IdТоварнаяГруппа&lt;/p&gt;&lt;p style=&quot;margin: 0px ; margin-left: 8px&quot;&gt;&lt;span&gt;Наименование_Рус&lt;/span&gt;&lt;br&gt;&lt;/p&gt;" style="verticalAlign=top;align=left;overflow=fill;fontSize=12;fontFamily=Helvetica;html=1;strokeColor=#d79b00;shadow=1;fillColor=#ffe6cc;" vertex="1" parent="1">
          <mxGeometry x="440" y="-586.3399999999999" width="160" height="70" as="geometry" />
        </mxCell>
      </root>
    </mxGraphModel>
  </diagram>
</mxfile>
